<svg viewBox="0 0 1123 736" fill="none" xmlns="http://www.w3.org/2000/svg">
<g clip-path="url(#clip0_1_16)">
<path d="M420.83 236.85C428.32 216.6 435.81 196.35 443.29 176.1C451.78 153.12 460.66 130.28 468.67 107.13C479.99 74.38 490.86 41.48 501.41 8.47999C503.15 3.04999 505.11 1.06999 510.8 1.08999C579.24 1.42999 647.69 1.65999 716.13 1.67999C793.28 1.68999 870.42 1.61999 947.57 1.21999C974.37 1.07999 1001.16 3.05999 1026.37 11.36C1046.33 17.93 1063.63 30.63 1077.42 47.64C1091.84 65.44 1106.27 82.9 1112.46 105.65C1118.32 127.17 1124.16 148.57 1120.51 171.27C1117.4 190.61 1116.78 210.63 1111.36 229.27C1100.65 266.07 1079.72 295.56 1046 316.47C1003.52 342.81 958.47 345.6 910.78 339.22C887.74 336.14 867.74 327.49 850.5 313.09C839.33 303.76 829.73 292.19 820.85 280.55C796.5 248.61 788.06 212.14 790.77 172.29C792.37 148.78 794.45 125.51 803.52 103.62C808.25 92.21 814.73 81.52 820.4 70.49C821.3 68.74 822.13 66.96 823.5 64.13H701.55C701.55 80.3 701.55 95.8 701.55 111.3C701.55 129.79 701.5 148.29 701.55 166.78C701.62 192.79 701.87 218.8 701.84 244.82C701.82 264.75 701.38 284.68 701.32 304.6C701.29 313.52 701.32 322.48 702.07 331.36C702.6 337.58 700.29 339.92 694.41 339.84C678.75 339.65 663.09 339.46 647.44 339.44C640.48 339.44 639.55 335.11 639.55 329.61C639.58 288.71 639.52 247.81 639.54 206.91C639.56 161.95 639.64 116.99 639.66 72.04C639.66 69.5 639.35 66.95 639.16 64.03C614.3 64.03 589.91 63.96 565.53 64.2C563.95 64.22 561.63 66.29 560.95 67.94C548.15 98.91 535.24 129.85 522.98 161.04C510.53 192.72 498.87 224.7 486.63 256.46C480.2 273.15 473.47 289.73 466.47 306.19C457.86 326.43 436.32 337.9 414.41 334.51C411.28 334.02 408 334.36 404.9 333.74C388.36 330.45 377.74 319.71 371.71 304.83C353.63 260.16 336.19 215.23 318.37 170.45C305.88 139.07 292.88 107.89 280.68 76.4C273.18 57.06 266.81 37.28 259.81 17.74C257.98 12.62 255.68 7.67999 253.29 1.90999C255.51 1.65999 257.36 1.25999 259.21 1.25999C282.13 1.21999 305.06 1.33999 327.98 1.14999C333.07 1.10999 335.33 2.51999 337.03 7.81999C345.33 33.66 354.3 59.28 363.12 84.95C372.22 111.43 381.16 137.96 390.65 164.3C399.43 188.64 408.85 212.76 417.98 236.97C418.92 236.93 419.86 236.9 420.8 236.86L420.83 236.85ZM1066.13 172.36C1064.55 160.94 1063.68 149.37 1061.25 138.13C1054.26 105.74 1036.9 80.27 1006.36 66.53C993.02 60.53 977.62 58.21 962.89 56.35C924.48 51.51 892.7 65.64 870.48 96.48C841.52 136.67 838.91 181.17 856.52 226.95C862.77 243.2 873.69 256.36 887.09 267.34C901.86 279.43 919.01 284.72 937.93 287.36C973.44 292.3 1005.06 285.51 1030.9 260C1055.06 236.15 1064.55 205.95 1066.12 172.37L1066.13 172.36Z" fill="#111111"/>
<path d="M1122.76 733.15C1087.06 733.15 1052.39 733.05 1017.72 733.18C984.77 733.3 951.81 733.78 918.86 733.89C896.83 733.96 897.19 733.79 897.22 711.71C897.35 609.92 897.36 508.14 897.1 406.35C897.08 398.36 899.32 395.64 907.33 395.67C977.5 395.91 1047.67 395.85 1117.83 395.9C1118.66 395.9 1119.5 396.22 1120.98 396.52V458.37C1112.7 458.37 1104.71 458.38 1096.72 458.37C1061.19 458.3 1025.67 458.24 990.14 458.12C982.05 458.09 973.94 457.39 965.9 457.9C963.59 458.05 959.6 461.32 959.57 463.21C959.21 483.99 959.46 504.79 959.6 525.57C959.61 527.26 960.03 528.95 960.36 531.43H1120.95V594.24C1113.92 594.24 1107.1 594.27 1100.28 594.24C1055.8 594.03 1011.31 593.73 966.83 593.81C964.44 593.81 960.02 596.89 959.97 598.62C959.39 621.13 959.41 643.66 959.36 666.19C959.36 667.56 960.02 668.93 960.56 670.99H1122.77V733.16L1122.76 733.15Z" fill="#111111"/>
<path d="M0 735.07V676.05C7.43 675.66 14.78 674.91 22.12 674.97C49.85 675.17 77.6 676.4 105.31 675.75C125.21 675.28 145.53 674.49 164.81 670.1C184.79 665.56 200.38 656.01 204.07 631.64C205.83 619.97 203.35 609.21 192.12 602.26C173.73 590.88 152.87 586.61 132.27 582.42C101.05 576.07 69.4 571.59 41.02 555.8C22.48 545.48 7.43 531.74 2.3 510.22C-1.89 492.64 2.19 475.75 9.66 459.75C27.19 422.17 58.66 403.62 98.16 398.22C120.16 395.21 142.57 394.65 164.82 394.23C198.44 393.59 232.08 394.03 265.71 394.04C268.3 394.04 270.89 394.25 274.14 394.4V446.68C269.98 446.68 265.53 446.68 261.07 446.68C235.65 446.63 210.21 445.95 184.82 446.72C160.27 447.46 135.58 448.3 111.3 451.67C91.39 454.44 74.29 464.99 70.7 485C68.62 496.57 71.56 507.24 82.22 511.32C99.07 517.77 116.76 522.37 134.42 526.31C156.43 531.22 179.19 533.12 200.85 539.11C234.02 548.28 261.31 565.83 271.57 601.58C277.09 620.82 273.13 639.71 266.4 657.61C257.91 680.2 244.3 699.18 223.32 712.68C206.04 723.8 187.29 731.03 167.35 731.89C119.06 733.97 70.69 734.14 22.36 735.04C15.19 735.17 8.01 735.06 0.02 735.06L0 735.07Z" fill="#111111"/>
<path d="M331.32 334.08C305.77 334.08 280.27 334.24 254.78 333.8C252.61 333.76 249.43 330.16 248.54 327.59C235.86 290.73 223.75 253.67 210.99 216.83C200.06 185.29 188.58 153.93 177.08 122.58C174.1 114.47 170.13 106.72 165.53 96.36C159.71 111.48 154.56 124.61 149.59 137.81C142.2 157.45 134.87 177.11 127.64 196.82C122.76 210.12 117.87 223.42 113.4 236.86C103.1 267.8 93.14 298.85 82.71 329.75C82.06 331.67 78.62 333.86 76.46 333.88C51.25 334.17 26.03 334.06 0 334.06C7.16 314.88 13.8 296.32 20.99 277.99C34.81 242.8 49.07 207.77 62.92 172.59C73.8 144.95 84.3 117.17 95.06 89.48C102.37 70.67 110.41 52.12 117.09 33.1C130.47 -4.97 174.42 -6.48 198.31 9.81C204.79 14.23 209.85 22.27 213.02 29.73C223.62 54.69 233.02 80.16 242.96 105.4C250.57 124.72 258.23 144.02 265.98 163.29C278.91 195.42 292.33 227.35 304.79 259.66C314.19 284.04 322.4 308.89 331.33 334.06L331.32 334.08Z" fill="#111111"/>
<path d="M584.81 724.44C565.74 724.44 546.68 724.52 527.62 724.4C519.82 724.35 510.28 726.53 504.74 722.85C499.7 719.5 498.8 709.68 496.41 702.59C485.53 670.3 475.04 637.88 463.89 605.69C453.15 574.69 441.9 543.87 430.59 513.07C427.52 504.71 423.44 496.72 418.88 486.42C413.08 501.81 407.99 515.26 402.95 528.73C395.69 548.12 388.38 567.49 381.23 586.91C376.33 600.2 371.41 613.49 366.93 626.92C356.62 657.86 346.64 688.9 336.28 719.82C335.65 721.69 332.84 724.1 331.02 724.12C305.31 724.4 279.59 724.31 253.3 724.31C260.94 704.24 268.03 685.11 275.49 666.12C288.88 632 302.57 597.99 315.99 563.88C327.29 535.16 338.36 506.36 349.55 477.6C356.76 459.06 363.76 440.44 371.32 422.04C377.27 407.57 386.43 396.15 402.82 392.53C419.12 388.93 435.43 389.01 449.34 398.63C456.53 403.6 462.79 411.75 466.34 419.83C476.87 443.86 485.82 468.59 495.44 493.02C503.37 513.15 511.29 533.29 519.36 553.36C532.28 585.49 545.72 617.42 558.17 649.73C567.58 674.13 575.79 698.99 584.82 724.42L584.81 724.44Z" fill="#111111"/>
<path d="M529.07 394.3C531.76 394.07 533.96 393.72 536.15 393.72C558.49 393.68 580.83 393.81 603.16 393.62C608.45 393.57 611.07 394.72 612.92 400.52C621.05 426.1 629.96 451.43 638.71 476.81C647.83 503.27 656.87 529.77 666.36 556.11C675.22 580.71 684.63 605.12 693.79 629.61C694.6 629.62 695.41 629.63 696.22 629.65C701.25 616.56 706.36 603.49 711.31 590.36C718.8 570.45 726.37 550.57 733.54 530.55C738.89 515.6 743.59 500.42 748.67 485.36C757.44 459.37 766.02 433.32 775.17 407.47C780.11 393.52 780.57 393.66 795.41 393.64C817.12 393.62 838.83 393.64 860.99 393.64C853.89 412.72 847.28 431.1 840.24 449.31C824.76 489.4 809.15 529.43 793.45 569.43C784.49 592.27 775.21 615 766.15 637.8C759.45 654.67 753.26 671.76 746.05 688.41C742.07 697.59 737.28 706.7 731.25 714.62C727.87 719.05 721.48 721.62 715.97 723.88C703.57 728.96 690.75 728.16 677.9 725.26C661.82 721.63 652.86 710.25 647.16 696.12C629.35 651.97 612.07 607.62 594.44 563.4C581.72 531.5 568.47 499.81 556.05 467.79C548.65 448.73 542.44 429.2 535.57 409.93C533.75 404.83 531.42 399.9 529.08 394.29L529.07 394.3Z" fill="#111111"/>
<path d="M895.26 170.21C896.1 146.02 905.07 126.49 927.95 116.15C947.68 107.23 968.34 106.41 986.84 118.6C1005.03 130.59 1012.51 148.77 1011.29 170.89C1010.06 193.15 1003 211.9 982.48 222.86C962.37 233.6 940.96 234.99 921.21 223.33C901.71 211.81 893.99 192.76 895.26 170.2V170.21Z" fill="#111111"/>
</g>
<defs>
<clipPath id="clip0_1_16">
<rect width="1122.76" height="735.11" fill="white"/>
</clipPath>
</defs>
</svg>
